<svg width="424" height="90" viewBox="0 0 424 90" fill="none" xmlns="http://www.w3.org/2000/svg">
<path d="M137.515 75.2C149.435 75.2 159.595 69.12 159.595 57.6C159.595 46.32 149.915 43.44 144.635 42L133.995 38.96C129.915 37.84 125.035 36.16 125.035 31.36C125.035 26.48 130.315 23.04 136.715 23.12C143.355 23.28 149.035 27.12 150.235 33.68L159.195 32.08C156.875 21.52 148.555 15.36 136.795 15.28C125.195 15.2 116.235 21.12 116.235 31.76C116.235 41.12 123.115 44.48 128.875 46.16L143.675 50.56C147.915 51.84 150.875 54 150.875 58.08C150.875 63.92 144.955 67.28 137.995 67.28C130.475 67.28 124.395 63.2 122.635 56.16L113.995 57.52C115.835 68.48 125.115 75.2 137.515 75.2ZM172.279 54.72H204.519C205.399 39.28 197.639 29.6 184.439 29.6C171.799 29.6 163.319 38.64 163.319 52.8C163.319 66.08 171.959 75.2 184.919 75.2C193.239 75.2 200.519 70.8 203.879 63.04L195.719 60.4C193.559 64.88 189.639 67.28 184.439 67.28C177.159 67.28 172.919 62.8 172.279 54.72ZM184.759 37.04C191.399 37.04 195.079 40.64 195.959 48.24H172.519C173.559 40.96 177.719 37.04 184.759 37.04ZM217.536 54.72H249.776C250.656 39.28 242.896 29.6 229.696 29.6C217.056 29.6 208.576 38.64 208.576 52.8C208.576 66.08 217.216 75.2 230.176 75.2C238.496 75.2 245.776 70.8 249.136 63.04L240.976 60.4C238.816 64.88 234.896 67.28 229.696 67.28C222.416 67.28 218.176 62.8 217.536 54.72ZM230.016 37.04C236.656 37.04 240.336 40.64 241.216 48.24H217.776C218.816 40.96 222.976 37.04 230.016 37.04ZM285.272 16.4V33.76C282.232 31.12 278.312 29.6 273.512 29.6C261.432 29.6 253.832 39.36 253.832 52.4C253.832 65.36 261.352 75.2 273.352 75.2C278.872 75.2 283.192 73.28 286.312 70V74H293.752V16.4H285.272ZM274.552 67.6C266.552 67.6 262.712 60.96 262.712 52.4C262.712 43.92 266.552 37.2 274.792 37.2C282.712 37.2 286.312 43.36 286.312 52.4C286.312 61.28 282.792 67.6 274.552 67.6ZM359.237 29.68C353.477 29.68 348.757 32.4 346.197 36.96C343.877 32.24 339.317 29.68 333.637 29.68C328.437 29.68 324.117 31.84 321.477 35.36V30.8H316.197V74H322.037V46.16C322.037 39.36 326.117 34.88 332.117 34.88C338.037 34.88 342.037 39.2 342.037 46L341.957 74H347.797L347.877 46.16C347.877 38.08 352.997 34.88 357.957 34.88C363.637 34.88 367.797 38.96 367.797 45.68L367.717 74H373.557L373.637 44.56C373.637 35.44 367.957 29.68 359.237 29.68ZM401.45 29.76C395.21 29.76 390.09 32.16 386.89 36.8V30.8H381.61V74H387.53V50.96C387.53 41.2 392.01 35.36 400.25 35.36C409.37 35.36 412.81 42.4 412.81 51.92V74H418.73V50.24C418.73 40.48 414.33 29.76 401.45 29.76Z" fill="black"/>
<g clip-path="url(#clip0_19_81)">
<path d="M29.4825 61.3027V27.1027C29.4843 25.7708 29.9736 24.4856 30.8582 23.4898V2.18555C22.1084 5.05652 14.4887 10.6174 9.08609 18.0748C3.68349 25.5322 0.773928 34.5054 0.772461 43.7141V59.9141V89.9999L29.4825 61.3027Z" fill="#1F910F"/>
<path d="M32.221 22.3329C32.9183 21.9326 33.6954 21.6911 34.4967 21.6257H34.5739C35.6649 21.5549 36.7524 21.81 37.6982 22.3586L57.1896 33.6086L60.9182 29.88V2.90347e-06H44.4867C39.8565 -0.00168913 35.2557 0.736172 30.8582 2.18571V23.4643C31.249 23.0167 31.7091 22.6347 32.221 22.3329V22.3329Z" fill="#2CB521"/>
<path d="M60.9182 29.8672L57.1896 33.5958L68.761 40.2686C69.5944 40.7474 70.2866 41.4376 70.7681 42.2695C71.2495 43.1013 71.503 44.0454 71.503 45.0065C71.503 45.9676 71.2495 46.9117 70.7681 47.7435C70.2866 48.5753 69.5944 49.2655 68.761 49.7443L51.1467 59.9143H88.6253C90.0645 55.5147 90.7979 50.9149 90.7982 46.2858V29.8672H60.9182Z" fill="#1F910F"/>
<path d="M60.9439 59.9141H51.1211L37.6982 67.6284C36.7513 68.1731 35.6637 68.4238 34.5739 68.3483V68.3483C33.7442 68.2954 32.9383 68.0488 32.221 67.6284C32.1863 67.6145 32.1554 67.5925 32.1311 67.5641H32.3882H32.1311C31.3218 67.0805 30.6522 66.3948 30.1879 65.5743C29.7235 64.7539 29.4805 63.8268 29.4825 62.8841V61.3027L0.785339 89.9998H47.1482C56.3438 89.9821 65.2996 87.065 72.7416 81.6636C80.1836 76.2621 85.7328 68.6514 88.5996 59.9141H60.9439Z" fill="#127F06"/>
<path d="M60.9438 0H60.9053V29.8286V29.8671L60.9438 29.8414V29.8286L90.7724 0H60.9438Z" fill="#3AD629"/>
<path d="M60.9438 29.8414L60.9053 29.8671H60.9438H90.7724V29.8286V0L60.9438 29.8286V29.8414Z" fill="#2CB521"/>
<path d="M34.5739 21.6128H34.4967L61.4967 39.4971C62.2338 40.0491 62.8322 40.7652 63.2443 41.5887C63.6565 42.4123 63.871 43.3205 63.871 44.2414C63.871 45.1622 63.6565 46.0705 63.2443 46.894C62.8322 47.7175 62.2338 48.4336 61.4967 48.9856L34.4967 66.9085C33.8851 67.3134 33.1828 67.5607 32.4525 67.6285V67.6285H32.1953C32.2197 67.6569 32.2505 67.679 32.2853 67.6928C33.0026 68.1133 33.8084 68.3599 34.6382 68.4128C35.728 68.4882 36.8156 68.2376 37.7625 67.6928L51.1853 59.9785L68.7996 49.8085C69.6329 49.3297 70.3252 48.6395 70.8066 47.8077C71.288 46.9759 71.5415 46.0318 71.5415 45.0707C71.5415 44.1096 71.288 43.1655 70.8066 42.3336C70.3252 41.5018 69.6329 40.8116 68.7996 40.3328L57.2282 33.6599L37.7367 22.4099C36.7869 21.8314 35.6844 21.5536 34.5739 21.6128Z" fill="#0F5B05"/>
</g>
<defs>
<clipPath id="clip0_19_81">
<rect width="90" height="90" fill="white" transform="translate(0.772461)"/>
</clipPath>
</defs>
</svg>
